<?xml version="1.0" encoding="UTF-8" standalone="no"?>
<svg width="100px" height="34px" viewBox="0 0 100 34" version="1.1" xmlns="http://www.w3.org/2000/svg" xmlns:xlink="http://www.w3.org/1999/xlink" xmlns:sketch="http://www.bohemiancoding.com/sketch/ns">
    <!-- Generator: Sketch 3.2.1 (9971) - http://www.bohemiancoding.com/sketch -->
    <title>logo</title>
    <desc>Created with Sketch.</desc>
    <defs/>
    <g id="Page-1" stroke="none" stroke-width="1" fill="none" fill-rule="evenodd" sketch:type="MSPage">
        <g id="Desktop-HD" sketch:type="MSArtboardGroup" fill="#57CDF9">
            <g id="logo" sketch:type="MSLayerGroup">
                <g id="Group-+-Shape"/>
                <g id="Group" transform="translate(0.000000, 4.000000)" sketch:type="MSShapeGroup">
                    <path d="M22.5080465,19.5748803 L29.3257302,19.5748803 L29.3257302,18.3106267 L14.3259944,18.3106267 L14.3259944,19.5748803 L21.212295,19.5748803 L21.212295,27.3352014 L12.2799615,27.3352014 L12.2799615,28.599455 L31.1322968,28.599455 L31.1322968,27.3352014 L22.5080465,27.3352014 L22.5080465,19.5748803" id="Fill-251"/>
                    <path d="M0.345914409,6.27792916 L13.4906619,6.27792916 L13.4906619,5.05722071 L0.345914409,5.05722071 L0.345914409,6.27792916 Z" id="Fill-252"/>
                    <path d="M13.7357464,21.8795062 L8.72404576,22.5677905 L8.72404576,8.54495913 L7.4981472,8.54495913 L7.4981472,22.7403857 L0,23.7008392 L0.135479462,24.9729423 L7.4981472,24.0110912 L7.4981472,30.9536785 L8.72404576,30.9536785 L8.72404576,23.8391948 C11.0420959,23.5292922 13.1221041,23.2211365 13.8365763,23.1177192 L13.7357464,21.8795062" id="Fill-253"/>
                    <path d="M63.5124046,21.2752044 L43.807887,21.2752044 C42.6358402,21.2752044 41.6826862,20.314418 41.6826862,19.1329858 L41.6826862,14.3737416 L61.9316654,10.6988733 L62.1564462,11.9637458 L42.9569062,15.447993 L42.9569062,19.1329858 C42.9569062,19.6063966 43.338237,19.9897336 43.807887,19.9897336 L63.5124046,19.9897336 C63.9813619,19.9897336 64.3626927,19.6063966 64.3626927,19.1329858 L64.3626927,5.28257958 C64.3626927,4.80916884 63.9813619,4.42373709 63.5124046,4.42373709 L43.807887,4.42373709 C43.338237,4.42373709 42.9569062,4.80916884 42.9569062,5.28257958 L42.9569062,11.4173683 L41.6826862,11.4173683 L41.6826862,5.28257958 C41.6826862,4.1001001 42.6358402,3.13896458 43.807887,3.13896458 L63.5124046,3.13896458 C64.6837588,3.13896458 65.637259,4.1001001 65.637259,5.28257958 L65.637259,19.1329858 C65.637259,20.314418 64.6837588,21.2752044 63.5124046,21.2752044" id="Fill-254"/>
                    <path d="M14.4199151,16.0435967 L13.6636191,15.0130909 L14.0390069,14.7303641 C15.1009954,13.9288983 16.1584986,13.1211574 17.2115165,12.3067928 C18.2559087,11.4997491 19.2954706,10.6878248 20.3339974,9.87241436 C21.261426,9.14415767 22.1867844,8.41102037 23.1121429,7.67683722 C23.6648737,7.23758235 24.2172596,6.79553856 24.7696454,6.35349476 L25.2492309,5.97141274 C25.3975919,5.85183781 25.548713,5.73365733 25.7008693,5.6165227 C26.0496901,5.34599747 26.3798795,5.09011408 26.684537,4.81122209 C26.8808565,4.63168538 27.2062156,4.28167594 27.1793036,3.95362924 C27.1682628,3.81313741 27.1475613,3.5499331 26.4740715,3.5499331 L14.3136472,3.5499331 L14.3136472,2.26702997 L26.4740715,2.26702997 C27.6292169,2.26702997 28.3658464,2.85932682 28.4458923,3.85113644 C28.4979911,4.51036737 28.1836729,5.17134137 27.536405,5.76259237 C27.1934497,6.07634585 26.8280676,6.35942122 26.4740715,6.63412982 C26.3267456,6.74742969 26.1804548,6.86142679 26.0362341,6.97612112 L25.5587188,7.35820313 C25.0049528,7.80233862 24.4515319,8.24473103 23.8956958,8.68538036 C22.9686122,9.42130658 22.0422187,10.1540953 21.113065,10.8847923 C20.071778,11.7019458 19.0291109,12.5163104 17.9829936,13.3247485 C16.9258354,14.1436451 15.8645369,14.9534777 14.797718,15.7577324 L14.4199151,16.0435967" id="Fill-255"/>
                    <path d="M12.8853117,16.5667575 L3.96772121,16.5667575 C2.94171774,16.5667575 1.90252925,15.9705156 1.90252925,14.829516 C1.92542956,14.3237193 2.08711966,13.8130524 2.24395211,13.3176916 L2.28697695,13.1816761 L6.22340215,0 L7.44648711,0.366650479 L3.46079153,13.7045183 C3.3226957,14.1400462 3.19292725,14.5505277 3.17904827,14.8594325 C3.17974222,15.2048632 3.74843336,15.2866116 3.96772121,15.2866116 L12.8853117,15.2866116 L12.8853117,16.5667575" id="Fill-256"/>
                    <path d="M35.8021413,24.5885559 L70.1341463,24.5885559 L70.1341463,25.8964578 L35.8021413,25.8964578 L35.8021413,24.5885559 Z" id="Fill-257"/>
                    <path d="M52.5789901,32 L52.5789901,3.78131392 C52.5789901,3.42662537 52.8692507,3.13896458 53.2279323,3.13896458 C53.5869666,3.13896458 53.8761691,3.42662537 53.8761691,3.78131392 L53.8761691,32 L52.5789901,32" id="Fill-258"/>
                    <path d="M47.2173168,0.174386921 L48.5144958,0.174386921 L48.5144958,3.57493188 L47.2173168,3.57493188 L47.2173168,0.174386921 Z" id="Fill-259"/>
                    <path d="M58.1136206,0.174386921 L59.4107997,0.174386921 L59.4107997,3.83651226 L58.1136206,3.83651226 L58.1136206,0.174386921 Z" id="Fill-260"/>
                    <path d="M30.0391794,16.2179837 L21.1007789,10.6907738 L21.7611584,9.59128065 L30.6999038,15.1188405 L30.0391794,16.2179837" id="Fill-261"/>
                </g>
                <path d="M81.2,33 L81.2,28.7647059 L83.8,28.7647059 L83.8,33 L87.05,33 L87.05,27.3529412 L89,27.3529412 L82.5,21 L76,27.3529412 L77.95,27.3529412 L77.95,33 L81.2,33 Z" id="Shape" opacity="0.332905784" sketch:type="MSShapeGroup"/>
            </g>
        </g>
    </g>
</svg>
